<svg id="Calque_1" data-name="Calque 1" xmlns="http://www.w3.org/2000/svg" viewBox="0 0 518.5 309.52"><defs><style>.cls-1{fill:#00535c;}.cls-2{fill:#428bca;}.cls-3{fill:none;stroke:#00535c;stroke-miterlimit:10;stroke-width:2px;}</style></defs><title>Plan de travail 2</title><path class="cls-1" d="M209.7,38.59a4.29,4.29,0,0,0-3-1.23H195.08V39l6.7,6.7h4.82a4.25,4.25,0,0,0,3-1.23,1.71,1.71,0,0,0,.36-.43h.08a4,4,0,0,0,.86-2.52,4.4,4.4,0,0,0-.14-1A3.82,3.82,0,0,0,209.7,38.59Z"/><path class="cls-1" d="M156,4.48V98.91h94.43V4.48Zm39.15,71.77H182.91V50.68l12.24,12.25Zm25.28-25.78a16.87,16.87,0,0,1-1.16,1.29A14.28,14.28,0,0,1,209.05,56H193.71l-10.8-10.8V27.14h26.21a14.32,14.32,0,0,1,10.23,4.25,14.65,14.65,0,0,1,3.81,6.84l-.07-.15a13.18,13.18,0,0,1,.43,3.39A14.54,14.54,0,0,1,220.43,50.47Z"/><path class="cls-2" d="M267.44,4.48V98.91h94.43V4.48Zm67.88,72H294.06v-28L306.3,60.66v3.45l29,.08Zm0-37.23H307.6l6.4,6.41h21.32V57.85L309,57.92l-15-15V27h41.33Z"/><path class="cls-1" d="M267.44,115.91v94.43h94.43V115.91Zm55,53.38H305.62v18.57H293.37V145.45L304.9,157h17.57ZM336,150.64H305.54v1.44L293.3,139.83v-1.44H336Z"/><path class="cls-2" d="M156,115.91v94.43h94.43V115.91Zm31,72.35H172.65l21.17-34.78L201,165.29Zm32.47.07-2.95-4.9-20.38-33.77,7.13-11.73,30.53,50.4Z"/><line class="cls-3" x1="8.93" y1="232.43" x2="508.93" y2="232.43"/><path class="cls-1" d="M10.9,265.71h5.49c4.41,0,7,1.8,8.32,3.28a12.44,12.44,0,0,1,0,15.48c-1.35,1.53-3.91,3.33-8.32,3.33H11.71v11.3H6.49V265.71Zm11.83,11a6.88,6.88,0,0,0-1.48-4.54,6.31,6.31,0,0,0-4.86-1.8H11.71v12.69h4.68a6.3,6.3,0,0,0,4.86-1.76A6.93,6.93,0,0,0,22.73,276.73Z"/><path class="cls-1" d="M49.82,291.94H37.94l-2.83,7.16H29.35l14.53-34.92L58.37,299.1H52.66Zm-1.89-4.68-4-10.17-4.05,10.17Z"/><path class="cls-1" d="M71.33,281.64V299.1H66.11V281.64L54.37,265.71H60l8.73,11.88,8.73-11.88H83Z"/><path class="cls-1" d="M106.39,279.3h12.19V284H106.39v10.35h14.8v4.73h-20V265.71h20v4.68h-14.8Z"/><path class="cls-1" d="M145.45,291.94H133.57l-2.84,7.16H125l14.54-34.92L154,299.1h-5.72Zm-1.89-4.68-4.05-10.17-4,10.17Z"/><path class="cls-1" d="M175.64,292.39a9.68,9.68,0,0,1-7.51,6.53,10.72,10.72,0,0,1-2,.18,10.93,10.93,0,0,1-4-.72,13.2,13.2,0,0,1-5.53-4.28l4.14-3.24a7.43,7.43,0,0,0,3.28,2.61,5.05,5.05,0,0,0,3.06.27A4.4,4.4,0,0,0,170.6,291c.45-1.53-.58-2.88-1.53-3.78-1.48-1.39-3.91-3.78-4.09-4l-4.1-3.87a9.46,9.46,0,0,1-2.56-4,7.11,7.11,0,0,1-.09-4.23,7.64,7.64,0,0,1,2.47-3.74,8.77,8.77,0,0,1,4-1.89,8.93,8.93,0,0,1,4.95.36,11.22,11.22,0,0,1,4.54,3.38l-4.09,3.28a4.45,4.45,0,0,0-4.41-1.89,3.07,3.07,0,0,0-2.43,1.94c-.18.63-.14,1.66,1.26,3l5.58,5.36c.81.81,1.8,1.75,2.52,2.43a10,10,0,0,1,2.92,4.36A8,8,0,0,1,175.64,292.39Z"/><path class="cls-1" d="M181,299.1V265.71h5.22V299.1Z"/><path class="cls-1" d="M212.36,299.1H193.19V265.71h5.22v28.66h14Z"/><path class="cls-1" d="M226.22,281.64V299.1H221V281.64l-11.75-15.93h5.63l8.73,11.88,8.73-11.88h5.58Z"/><path class="cls-1" d="M274.14,291.94H262.26l-2.83,7.16h-5.76l14.53-34.92,14.49,34.92H277Zm-1.89-4.68-4.05-10.17-4.05,10.17Z"/><path class="cls-1" d="M292.55,277.63V299.1h-5.22v-35l21,23V265.71h5.26v34.92Z"/><path class="cls-1" d="M345.15,282.4c0,4.73-1.39,8.78-4,11.7a13.64,13.64,0,0,1-5.35,3.69,19.56,19.56,0,0,1-7.29,1.31h-7.92V265.71h7.92a18.79,18.79,0,0,1,7.29,1.3,13.64,13.64,0,0,1,5.35,3.69A17,17,0,0,1,345.15,282.4Zm-5.22,0a12,12,0,0,0-2.7-8.19c-2-2.2-4.9-3.28-8.77-3.28h-2.7v22.95h2.7c3.87,0,6.79-1.13,8.77-3.29A12,12,0,0,0,339.93,282.4Z"/><path class="cls-1" d="M369.63,279.3h12.2V284h-12.2V299.1h-5.22V265.71h20.07v4.68H369.63Z"/><path class="cls-1" d="M401.9,291.94H390l-2.84,7.16h-5.76L396,264.18l14.49,34.92h-5.72ZM400,287.26,396,277.09l-4,10.17Z"/><path class="cls-1" d="M432.09,292.39a9.67,9.67,0,0,1-7.51,6.53,10.72,10.72,0,0,1-2,.18,10.93,10.93,0,0,1-4-.72,13.2,13.2,0,0,1-5.53-4.28l4.14-3.24a7.43,7.43,0,0,0,3.28,2.61,5.05,5.05,0,0,0,3.06.27,4.4,4.4,0,0,0,3.51-2.79c.45-1.53-.58-2.88-1.53-3.78-1.48-1.39-3.91-3.78-4.09-4l-4.1-3.87a9.46,9.46,0,0,1-2.56-4,7.11,7.11,0,0,1-.09-4.23,7.64,7.64,0,0,1,2.47-3.74,8.77,8.77,0,0,1,4-1.89,8.93,8.93,0,0,1,4.95.36,11.22,11.22,0,0,1,4.54,3.38l-4.09,3.28a4.45,4.45,0,0,0-4.41-1.89,3.07,3.07,0,0,0-2.43,1.94c-.18.63-.14,1.66,1.26,3l5.58,5.36c.81.81,1.8,1.75,2.52,2.43a9.93,9.93,0,0,1,2.92,4.36A7.87,7.87,0,0,1,432.09,292.39Z"/><path class="cls-1" d="M458.55,270.39h-9.18V299.1h-5.26V270.39h-9.18v-4.68h23.62Z"/><path class="cls-1" d="M468.59,279.3h12.19V284H468.59v10.35h14.8v4.73h-20V265.71h20v4.68h-14.8Z"/><path class="cls-1" d="M512.91,299.1H507l-8.42-11.3h-3.82v11.3h-5.22V265.71h9.9c4.41,0,7,1.8,8.32,3.33a12.37,12.37,0,0,1,0,15.43,9.35,9.35,0,0,1-3.87,2.57Zm-13.45-16a6.13,6.13,0,0,0,4.81-1.8,7.74,7.74,0,0,0,0-9.13,6.11,6.11,0,0,0-4.81-1.76h-4.68v12.69Z"/></svg>