<svg id="Calque_1" data-name="Calque 1" xmlns="http://www.w3.org/2000/svg" viewBox="0 0 205.86 205.86"><defs><style>.cls-1{fill:#00535c;}.cls-2{fill:#428bca;}</style></defs><title>Plan de travail 4</title><path class="cls-1" d="M53.69,34.11a4.25,4.25,0,0,0-3-1.23H39.08v1.66l6.69,6.7H50.6a4.21,4.21,0,0,0,3-1.23,1.55,1.55,0,0,0,.36-.43h.07a3.94,3.94,0,0,0,.87-2.52,4.4,4.4,0,0,0-.14-1A3.76,3.76,0,0,0,53.69,34.11Z"/><path class="cls-1" d="M0,0V94.43H94.43V0ZM39.15,71.77H26.91V46.21L39.15,58.45ZM64.42,46c-.36.43-.72.86-1.15,1.3a14.31,14.31,0,0,1-10.22,4.24H37.71l-10.8-10.8V22.66H53.12a14.28,14.28,0,0,1,10.22,4.25,14.63,14.63,0,0,1,3.82,6.84l-.07-.15A13.18,13.18,0,0,1,67.52,37,14.49,14.49,0,0,1,64.42,46Z"/><path class="cls-2" d="M111.44,0V94.43h94.42V0Zm67.88,72H138.06v-28L150.3,56.18v3.46l29,.07Zm0-37.23H151.59L158,41.13h21.32V53.37L153,53.44l-15-15v-16h41.34Z"/><path class="cls-1" d="M111.44,111.44v94.42h94.42V111.44Zm55,53.37H149.61v18.57H137.37V141l11.52,11.6h17.57ZM180,146.16H149.54v1.44L137.3,135.36v-1.44H180Z"/><path class="cls-2" d="M0,111.44v94.42H94.43V111.44Zm31,72.34H16.65L37.82,149,45,160.81Zm32.47.07-3-4.89L40.12,145.19l7.13-11.74,30.53,50.4Z"/></svg>